<?xml version="1.0" encoding="utf-8"?>
<!-- Generator: Adobe Illustrator 24.1.0, SVG Export Plug-In . SVG Version: 6.00 Build 0)  -->
<svg version="1.1" id="Layer_1" xmlns="http://www.w3.org/2000/svg" xmlns:xlink="http://www.w3.org/1999/xlink" x="0px" y="0px"
	 viewBox="0 0 98.6 98.6" style="enable-background:new 0 0 98.6 98.6;" xml:space="preserve">
<g>
	<path d="M97.6,79.6c0.5-2.6,0.5-5.4,0-8c0.8-0.4,1.2-1.3,1-2.2c-0.2-0.9-1.1-1.4-1.9-1.4c-0.9-2.5-2.2-4.8-4-6.9
		c0.2-0.3,0.3-0.6,0.3-1c0-0.5-0.2-1-0.6-1.3c-0.6-0.6-1.6-0.7-2.3-0.3c-2.1-1.8-4.4-3.1-6.9-4c0-0.9-0.5-1.7-1.4-1.9
		c-0.8-0.2-1.7,0.2-2.2,0.9c-1.3-0.2-2.6-0.4-4-0.4s-2.7,0.1-4,0.4c-0.4-0.7-1.3-1.2-2.2-0.9c-0.9,0.2-1.4,1-1.4,1.9
		c-1.3,0.5-2.6,1-3.8,1.8L25,18.3l0,0c-0.1-0.1-1.7-1.5-1.2-3.2l0.1-0.1l0-0.2c0-0.3,0-0.3-1.2-1.6l0.7-0.7c0.4,0.2,0.8,0.4,1.2,0.4
		c0.5,0,0.9-0.2,1.2-0.5c0.7-0.7,0.7-2-0.2-2.8c-0.8-0.8-2.1-0.9-2.8-0.2c-0.4,0.4-0.5,0.9-0.5,1.4c0,0.4,0.2,0.7,0.4,1l-0.7,0.7
		c0,0,0,0,0,0c-1.4-1.6-3.4-3.7-4.6-5.3c-0.4-0.5-0.7-1-1.1-1.5l0.5-0.5c0.4,0.2,0.8,0.4,1.2,0.4c0.5,0,0.9-0.2,1.2-0.5
		c0.7-0.7,0.7-2-0.2-2.8c-0.8-0.8-2.1-0.9-2.8-0.2c-0.6,0.6-0.7,1.6-0.1,2.4l-0.3,0.3c-1.4-2.2-2.5-4.3-2.5-4.3L13.1,0l-0.5,0.3
		c0,0-2.5,1.6-5.9,1.1L6.3,1.4L6.2,1.8c0,0-0.3,1.2-1.8,2.6S1.8,6.1,1.8,6.1L1.4,6.3l0.1,0.4c0.5,3.4-1.1,5.9-1.1,5.9L0,13.1
		l0.5,0.3c0,0,2.1,1.1,4.3,2.5l-0.3,0.3c-0.8-0.5-1.8-0.5-2.4,0.1c-0.7,0.7-0.6,2,0.2,2.8c0.4,0.4,1,0.7,1.6,0.7
		c0.5,0,0.9-0.2,1.2-0.5c0.6-0.6,0.6-1.6,0.1-2.4l0.5-0.5c0.5,0.3,1,0.7,1.5,1.1c1.6,1.2,3.7,3.2,5.3,4.6c0,0,0,0,0,0l-0.7,0.7
		c-0.8-0.5-1.8-0.5-2.4,0.1c-0.4,0.4-0.5,0.9-0.5,1.4c0.1,0.5,0.3,1,0.7,1.4c0.4,0.4,1,0.7,1.6,0.7l0,0c0.5,0,0.9-0.2,1.2-0.5
		c0.6-0.6,0.6-1.6,0.1-2.4l0.7-0.7c1.3,1.2,1.4,1.2,1.6,1.2l0.2,0l0-0.1c1.7-0.6,3.1,1.1,3.2,1.2l0,0l38,39.3
		c-0.7,1.2-1.3,2.4-1.8,3.8c-0.9,0-1.7,0.5-1.9,1.4c-0.1,0.5-0.1,1,0.2,1.4c0.2,0.3,0.4,0.6,0.8,0.7c-0.2,1.3-0.4,2.6-0.4,4
		s0.1,2.7,0.4,4c-0.3,0.2-0.6,0.4-0.8,0.7c-0.3,0.4-0.3,0.9-0.2,1.4c0.2,0.8,1,1.4,1.8,1.4c0,0,0.1,0,0.1,0c0.9,2.5,2.2,4.9,4,6.9
		c-0.5,0.7-0.4,1.7,0.3,2.3c0.4,0.4,0.8,0.6,1.3,0.6c0.4,0,0.7-0.1,1-0.3c2.1,1.8,4.4,3.1,6.9,4c0,0.9,0.5,1.7,1.4,1.9
		c0.2,0,0.3,0.1,0.5,0.1c0.7,0,1.3-0.4,1.6-1c1.3,0.2,2.7,0.4,4,0.4c1.4,0,2.7-0.1,4-0.4c0.3,0.6,0.9,1,1.6,1c0.2,0,0.3,0,0.5-0.1
		c0.9-0.2,1.4-1,1.4-1.9c1.1-0.4,2.1-0.8,3.1-1.4c0,0,0,0,0,0l1.3,1.3c0.1,0.1,0.2,0.1,0.4,0.1s0.3-0.1,0.4-0.1l8.4-8.4
		c0.1-0.1,0.1-0.2,0.1-0.4s-0.1-0.3-0.1-0.4l-1.3-1.3c0,0,0,0-0.1,0c0.5-1,1-2,1.4-3.1c0,0,0.1,0,0.1,0c0.9,0,1.6-0.6,1.8-1.4
		C98.8,80.8,98.4,80,97.6,79.6z M97.6,81.5c-0.1,0.5-0.6,0.8-1.1,0.6C96,82,95.7,81.5,95.9,81c0.1-0.4,0.5-0.7,0.9-0.7
		c0.1,0,0.2,0,0.2,0C97.4,80.5,97.7,81,97.6,81.5z M87.1,94.8c0-0.4,0-1.4,0.7-2.7l1.9,1.7l-1.8,1.8L87.1,94.8z M81.5,97.6
		c-0.5,0.1-1-0.2-1.1-0.6c-0.1-0.5,0.2-1,0.6-1.1c0.1,0,0.2,0,0.2,0c0.4,0,0.8,0.3,0.9,0.7c0.1,0.2,0,0.5-0.1,0.7
		C81.9,97.4,81.7,97.5,81.5,97.6z M69.7,97.6c-0.2-0.1-0.4-0.2-0.5-0.4C69,97,69,96.7,69,96.5c0.1-0.4,0.5-0.7,0.9-0.7
		c0.1,0,0.2,0,0.2,0c0.5,0.1,0.8,0.6,0.6,1.1C70.6,97.4,70.1,97.7,69.7,97.6z M59.5,91.7c-0.3-0.3-0.3-0.9,0-1.3
		c0.2-0.2,0.4-0.3,0.6-0.3s0.5,0.1,0.6,0.3c0.2,0.2,0.3,0.4,0.3,0.6s-0.1,0.5-0.3,0.6C60.4,92,59.8,92,59.5,91.7z M53.6,81.5
		c-0.1-0.2,0-0.5,0.1-0.7s0.3-0.4,0.5-0.4c0.1,0,0.2,0,0.2,0c0.4,0,0.8,0.3,0.9,0.7c0.1,0.2,0,0.5-0.1,0.7s-0.3,0.4-0.5,0.4
		C54.2,82.2,53.7,81.9,53.6,81.5z M53.6,70.3c-0.1-0.2-0.1-0.4-0.1-0.7c0.1-0.4,0.5-0.7,0.9-0.7c0.1,0,0.2,0,0.2,0
		c0.2,0.1,0.4,0.2,0.5,0.4s0.1,0.4,0.1,0.7c-0.1,0.5-0.6,0.8-1.1,0.6C54,70.7,53.8,70.5,53.6,70.3z M71.8,96.6
		c0-0.8-0.6-1.5-1.4-1.7c-0.8-0.2-1.6,0.1-2.1,0.8c-2.4-0.9-4.6-2.1-6.6-3.8c0.1-0.3,0.2-0.5,0.2-0.8c0-0.5-0.2-1-0.6-1.3
		s-0.8-0.6-1.3-0.6c-0.3,0-0.6,0.1-0.8,0.2c-1.7-2-2.9-4.2-3.8-6.6c0.7-0.4,1-1.3,0.8-2.1c-0.2-0.8-0.9-1.3-1.7-1.4
		c-0.2-1.2-0.3-2.5-0.3-3.8c0-1.3,0.1-2.6,0.4-3.8c0.8,0,1.5-0.6,1.7-1.4c0.2-0.8-0.1-1.6-0.8-2.1c0.7-1.9,1.6-3.6,2.8-5.3
		l20.2,20.6l-3.6,3.6l0.7,0.7l3.6-3.6l7.9,7c-0.6,1.2-0.9,2.2-0.9,2.8c-1.1,0.6-2.2,1.1-3.3,1.5c-0.4-0.7-1.3-1-2.1-0.8
		c-0.8,0.2-1.3,0.9-1.4,1.7c-1.2,0.2-2.5,0.3-3.8,0.3C74.3,97,73,96.8,71.8,96.6z M14.9,22.8c-0.3-0.3-1-0.9-1.7-1.5
		c-1.6-1.5-3.8-3.5-5.4-4.7c-0.4-0.3-0.9-0.7-1.4-1l0,0l-0.7-0.7l-0.2,0.2c-1.7-1.1-3.3-2-4.1-2.4c0.5-0.9,1.3-3,1.1-5.7
		C3,6.7,4,6.2,5.1,5.1C6.2,4,6.7,3,7,2.5c2.7,0.3,4.8-0.6,5.7-1.1c0.4,0.8,1.3,2.4,2.4,4.1l-0.2,0.2l0.7,0.7l0,0
		c0.3,0.5,0.7,1,1,1.4c1.2,1.6,3.2,3.8,4.7,5.4c0.6,0.7,1.3,1.4,1.5,1.7c-0.5,1.7,0.5,3.2,1.1,3.8l-0.6,0.6l-3.7-4.6
		c0.1-0.1,0.1-0.2,0.1-0.3c0.1-0.2,0-0.5-0.1-0.7c-0.3-0.4-0.8-0.5-1.3-0.3c-0.2,0.1-0.3,0.3-0.4,0.6c-0.1,0.2,0,0.5,0.1,0.7
		c0.2,0.3,0.5,0.4,0.8,0.4c0.1,0,0.2,0,0.4-0.1l3.8,4.7l-0.9,0.9l-9.8-13c0.1-0.1,0.1-0.2,0.2-0.4c0.1-0.2,0-0.5-0.1-0.7
		c-0.3-0.4-0.9-0.5-1.3-0.3c-0.4,0.3-0.5,0.8-0.3,1.3c0.2,0.3,0.5,0.4,0.8,0.4c0.1,0,0.2,0,0.3-0.1l9.8,13l-1,1L7.8,12
		c0.1-0.3,0.1-0.6-0.1-0.8c-0.3-0.4-0.8-0.5-1.3-0.3C6.2,11,6.1,11.2,6,11.5C6,11.7,6,12,6.2,12.2c0.2,0.3,0.5,0.4,0.8,0.4
		c0.2,0,0.3-0.1,0.5-0.1c0,0,0,0,0.1,0l13,9.8L19.6,23L15,19.2c0-0.1,0.1-0.1,0.1-0.2c0.1-0.2,0-0.5-0.1-0.7
		c-0.3-0.4-0.9-0.5-1.3-0.3c-0.2,0.1-0.3,0.3-0.4,0.6c-0.1,0.2,0,0.5,0.1,0.7c0.2,0.3,0.5,0.4,0.8,0.4c0.2,0,0.3,0,0.5-0.1
		c0,0,0,0,0,0l4.6,3.7l-0.6,0.6C18,23.3,16.6,22.3,14.9,22.8z M69.7,53.6c0.1,0,0.2,0,0.2,0c0.4,0,0.8,0.3,0.9,0.7
		c0.1,0.2,0,0.5-0.1,0.7c-0.1,0.2-0.3,0.4-0.5,0.4c-0.5,0.1-1-0.2-1.1-0.6c-0.1-0.2,0-0.5,0.1-0.7C69.2,53.8,69.4,53.6,69.7,53.6z
		 M69.9,56.3c0.2,0,0.3,0,0.5-0.1c0.8-0.2,1.3-0.9,1.4-1.7c1.2-0.2,2.5-0.3,3.8-0.3c1.3,0,2.6,0.1,3.8,0.3c0,0.8,0.6,1.5,1.4,1.7
		c0.2,0,0.3,0.1,0.5,0.1c0.6,0,1.2-0.3,1.6-0.9c2.4,0.9,4.6,2.1,6.6,3.8c-0.1,0.3-0.2,0.5-0.2,0.8c0,0.5,0.2,1,0.6,1.3
		S90.5,62,91,62c0.3,0,0.6-0.1,0.8-0.2c1.7,2,2.9,4.2,3.8,6.6c-0.7,0.4-1,1.2-0.8,2.1c0.2,0.8,0.9,1.3,1.7,1.4
		c0.4,2.5,0.4,5.1,0,7.6c-0.8,0.1-1.5,0.6-1.7,1.4c-0.2,0.8,0.1,1.6,0.8,2.1c-0.4,1.1-0.9,2.2-1.5,3.3c-0.7,0.1-1.7,0.3-2.8,0.9
		l-7-7.9l3.6-3.6l-0.7-0.7l-3.6,3.6L63.1,58.2c1.6-1.2,3.4-2.1,5.3-2.8C68.7,56,69.2,56.3,69.9,56.3z M81.2,53.5c0.1,0,0.2,0,0.2,0
		c0.2,0.1,0.4,0.2,0.5,0.4c0.1,0.2,0.2,0.4,0.1,0.7c-0.1,0.5-0.6,0.8-1.1,0.6c-0.2-0.1-0.4-0.2-0.5-0.4c-0.1-0.2-0.1-0.4-0.1-0.7
		C80.5,53.8,80.8,53.5,81.2,53.5z M91.7,59.5c0.2,0.2,0.3,0.4,0.3,0.6s-0.1,0.5-0.3,0.6c-0.3,0.3-0.9,0.3-1.3,0
		c-0.2-0.2-0.3-0.4-0.3-0.6s0.1-0.5,0.3-0.6c0.2-0.2,0.4-0.3,0.6-0.3S91.5,59.3,91.7,59.5z M97.6,69.7c0.1,0.5-0.2,1-0.6,1.1
		c-0.5,0.1-1-0.2-1.1-0.6c-0.1-0.5,0.2-1,0.6-1.1c0.1,0,0.2,0,0.2,0C97.1,69,97.5,69.3,97.6,69.7z M91.2,92.1l-2.1-2
		c0.1-0.2,0.3-0.3,0.5-0.5c0.2-0.2,0.3-0.3,0.5-0.5l2,2.1L91.2,92.1z M90,93.3l-2-1.8c0.2-0.4,0.5-0.7,0.8-1.1l2.1,2L90,93.3z
		 M22.4,21.6l37.9,37.6c-0.2,0.2-0.4,0.3-0.6,0.5s-0.4,0.4-0.5,0.6L21.6,22.4L22.4,21.6z M60.4,60.4c0.2-0.2,0.4-0.4,0.6-0.5
		l20.7,20.5l-1.3,1.3L59.9,61C60.1,60.8,60.2,60.6,60.4,60.4z M82.4,81.1l7,7.3c-0.2,0.2-0.3,0.3-0.5,0.5c-0.2,0.2-0.3,0.3-0.5,0.5
		l-7.3-7L82.4,81.1z M82.7,80.8l1.3-1.3l6.9,7.8c-0.4,0.2-0.7,0.5-1.1,0.8L82.7,80.8z M82,80.1L61.4,59.6c0.4-0.4,0.8-0.7,1.2-1
		l20.7,20.2L82,80.1z M60.7,58.8L22.8,21.2l0.9-0.9l38.3,37.5C61.5,58.1,61.1,58.5,60.7,58.8z M21.2,22.8l37.6,37.9
		c-0.4,0.4-0.7,0.8-1,1.2L20.4,23.7L21.2,22.8z M59.6,61.4L80.1,82l-1.3,1.3L58.5,62.6C58.9,62.2,59.2,61.8,59.6,61.4z M80.8,82.7
		l7.3,7c-0.3,0.4-0.6,0.8-0.8,1.1L79.5,84L80.8,82.7z M90.5,88.8c0.4-0.3,0.8-0.6,1.1-0.8l1.8,2l-0.9,0.9L90.5,88.8z M62.3,57.5
		L24,20l0.6-0.6l38.7,37.4C63,57,62.7,57.3,62.3,57.5z M20,24l37.5,38.3c-0.3,0.3-0.5,0.7-0.7,1L19.4,24.6L20,24z M93.7,89.6
		L92,87.8c1.3-0.7,2.3-0.7,2.7-0.7l0.8,0.8L93.7,89.6z M23.6,10.1c0.2-0.2,0.4-0.2,0.5-0.2c0.3,0,0.6,0.1,0.9,0.4
		c0.4,0.4,0.5,1.1,0.2,1.4c-0.2,0.2-0.4,0.2-0.5,0.2c-0.3,0-0.6-0.1-0.9-0.4c-0.2-0.2-0.4-0.5-0.4-0.8
		C23.4,10.5,23.5,10.2,23.6,10.1z M23.4,11.8L23.4,11.8L23.4,11.8z M17,2.8c0.2-0.2,0.4-0.2,0.5-0.2c0.3,0,0.6,0.1,0.9,0.4
		c0.4,0.4,0.5,1.1,0.2,1.4c-0.2,0.2-0.4,0.2-0.5,0.2c-0.3,0-0.6-0.1-0.9-0.4C16.7,3.7,16.6,3.1,17,2.8z M16.8,4.5L16.8,4.5L16.8,4.5
		z M4.4,18.5c-0.2,0.2-0.4,0.2-0.5,0.2c-0.3,0-0.6-0.1-0.9-0.4c-0.4-0.4-0.5-1.1-0.2-1.4c0.2-0.2,0.4-0.2,0.5-0.2
		c0.3,0,0.6,0.1,0.9,0.4C4.6,17.6,4.7,18.2,4.4,18.5z M4.5,16.8L4.5,16.8L4.5,16.8z M11.7,25.2c-0.2,0.2-0.4,0.2-0.5,0.2
		c-0.3,0-0.6-0.1-0.9-0.4c-0.2-0.2-0.4-0.5-0.4-0.8c0-0.2,0-0.5,0.2-0.6c0.2-0.2,0.4-0.2,0.5-0.2c0.3,0,0.6,0.1,0.9,0.4
		C11.9,24.2,12,24.9,11.7,25.2z M11.8,23.4L11.8,23.4L11.8,23.4z"/>
</g>
</svg>
