<?xml version="1.0" encoding="utf-8"?>
<!-- Generator: Adobe Illustrator 27.5.0, SVG Export Plug-In . SVG Version: 6.00 Build 0)  -->
<svg version="1.1" id="Capa_2" xmlns="http://www.w3.org/2000/svg" xmlns:xlink="http://www.w3.org/1999/xlink" x="0px" y="0px"
	 viewBox="0 0 1898 2372" style="enable-background:new 0 0 1898 2372;" xml:space="preserve">
<path style="fill:#000000;" d="M997.085,1434.613V561.086c14.422-3.453,25.048-14.532,25.048-27.569l4.929-47.674h43.826v10.982
	c0,7.138,5.839,12.976,12.977,12.976l0,0c7.137,0,12.977-5.839,12.977-12.976v-41.752c0-7.137-5.839-12.976-12.977-12.976l0,0
	c-7.138,0-12.977,5.84-12.977,12.976v10.633h-41.745l5.626-54.418h36.119v10.982c0,7.137,5.839,12.977,12.977,12.977l0,0
	c7.137,0,12.977-5.84,12.977-12.977v-41.752c0-7.137-5.839-12.977-12.977-12.977l0,0c-7.138,0-12.977,5.84-12.977,12.977v10.632
	h-34.037l5.653-54.691h28.384v10.982c0,7.137,5.839,12.977,12.977,12.977l0,0c7.137,0,12.977-5.84,12.977-12.977v-41.752
	c0-7.137-5.839-12.977-12.977-12.977l0,0c-7.138,0-12.977,5.84-12.977,12.977v10.632h-26.302l5.088-49.221
	c0-15.776-15.558-28.683-34.573-28.683H882.265c-19.015,0-34.573,12.907-34.573,28.683l5.089,49.221h-26.302v-10.632
	c0-7.137-5.839-12.977-12.977-12.977l0,0c-7.137,0-12.976,5.84-12.976,12.977v41.752c0,7.137,5.839,12.977,12.976,12.977l0,0
	c7.138,0,12.977-5.84,12.977-12.977v-10.982h28.384l5.653,54.691h-34.037v-10.632c0-7.137-5.839-12.977-12.977-12.977l0,0
	c-7.137,0-12.976,5.84-12.976,12.977v41.752c0,7.137,5.839,12.977,12.976,12.977l0,0c7.138,0,12.977-5.84,12.977-12.977v-10.982
	h36.119l5.625,54.418h-41.745v-10.633c0-7.137-5.839-12.976-12.977-12.976l0,0c-7.137,0-12.976,5.84-12.976,12.976v41.752
	c0,7.138,5.839,12.976,12.976,12.976l0,0c7.138,0,12.977-5.839,12.977-12.976v-10.982h43.826l4.929,47.674
	c0,13.038,10.626,24.116,25.048,27.569v873.527c-170.944,23.578-302.592,170.256-302.592,347.683
	c0,193.849,157.146,350.995,350.995,350.995c193.849,0,350.995-157.146,350.995-350.995
	C1299.678,1604.869,1168.03,1458.191,997.085,1434.613z"/>
<path style="fill:#FFFFFF;" d="M1231.623,1782.296c-0.391,117.332-74.912,225.37-185.494,265.731
	c-31.254,11.408-64.194,17.097-97.446,17.208c-7.177,0.024-7.191,11.18,0,11.156c60.643-0.202,120.478-18.856,169.951-54.074
	c48.117-34.253,85.278-82.499,105.895-137.865c12.151-32.633,18.133-67.361,18.25-102.156
	C1242.802,1775.117,1231.646,1775.107,1231.623,1782.296z"/>
<path style="fill:#FFFFFF;" d="M749.04,1556.221c-54.696,52.24-88.679,123.762-93.759,199.311
	c-1.508,22.426-0.283,44.85,3.067,67.059c1.067,7.075,11.818,4.069,10.758-2.965c-14.193-94.095,19.109-189.887,87.823-255.516
	C762.13,1559.141,754.234,1551.26,749.04,1556.221z"/>
<path style="fill:#FFFFFF;" d="M1083.841,301.581c0.75,0.382,1.572,0.598,2.365,0.878c1.23,0.434,2.44,1.057,3.263,2.069
	c0.515,0.633,0.853,1.387,1.271,2.089c0.423,0.711,0.991,1.455,1.793,1.758l0.441,0.081l0.831-0.578
	c0.26-0.702,0.018-1.629-0.118-2.338c-0.315-1.648-0.908-3.245-1.828-4.652c-1.077-1.655-2.58-3.04-4.351-3.911
	c-0.812-0.399-1.696-0.694-2.6-0.685c-0.905,0.009-1.833,0.352-2.409,1.05c-0.563,0.681-0.727,1.672-0.406,2.496
	C1082.399,300.621,1083.091,301.2,1083.841,301.581z"/>
<path style="fill:#FFFFFF;" d="M1083.841,376.112c0.75,0.382,1.572,0.598,2.365,0.878c1.23,0.434,2.44,1.057,3.263,2.069
	c0.515,0.633,0.853,1.387,1.271,2.089c0.423,0.711,0.991,1.455,1.793,1.758l0.441,0.081l0.831-0.578
	c0.26-0.701,0.018-1.628-0.118-2.338c-0.315-1.648-0.908-3.245-1.828-4.652c-1.077-1.655-2.58-3.041-4.351-3.911
	c-0.812-0.399-1.696-0.694-2.6-0.685c-0.905,0.008-1.833,0.352-2.409,1.049c-0.563,0.682-0.727,1.673-0.406,2.496
	C1082.399,375.152,1083.091,375.73,1083.841,376.112z"/>
<path style="fill:#FFFFFF;" d="M1083.841,450.879c0.75,0.382,1.572,0.598,2.365,0.878c1.23,0.435,2.44,1.057,3.263,2.069
	c0.515,0.633,0.853,1.388,1.271,2.09c0.423,0.711,0.991,1.455,1.793,1.758l0.441,0.08l0.831-0.578
	c0.26-0.701,0.018-1.629-0.118-2.338c-0.315-1.648-0.908-3.245-1.828-4.653c-1.077-1.654-2.58-3.04-4.351-3.911
	c-0.812-0.399-1.696-0.693-2.6-0.685c-0.905,0.008-1.833,0.353-2.409,1.05c-0.563,0.682-0.727,1.673-0.406,2.496
	C1082.399,449.919,1083.091,450.498,1083.841,450.879z"/>
<path style="fill:#FFFFFF;" d="M805.167,308.457l0.441-0.081c0.802-0.303,1.37-1.047,1.793-1.758
	c0.417-0.702,0.756-1.456,1.271-2.089c0.823-1.012,2.033-1.635,3.263-2.069c0.794-0.28,1.615-0.496,2.366-0.878
	c0.75-0.382,1.441-0.96,1.748-1.744c0.322-0.823,0.157-1.815-0.405-2.496c-0.576-0.698-1.505-1.041-2.41-1.05
	c-0.904-0.008-1.788,0.286-2.599,0.685c-1.772,0.871-3.276,2.256-4.352,3.911c-0.921,1.407-1.513,3.005-1.828,4.652
	c-0.136,0.709-0.378,1.637-0.118,2.338L805.167,308.457z"/>
<path style="fill:#FFFFFF;" d="M805.167,382.987l0.441-0.081c0.802-0.303,1.37-1.047,1.793-1.758
	c0.417-0.702,0.756-1.456,1.271-2.089c0.823-1.012,2.033-1.635,3.263-2.069c0.794-0.28,1.615-0.496,2.366-0.878
	c0.75-0.382,1.441-0.96,1.748-1.744c0.322-0.823,0.157-1.815-0.405-2.496c-0.576-0.697-1.505-1.041-2.41-1.049
	c-0.904-0.009-1.788,0.286-2.599,0.685c-1.772,0.871-3.276,2.256-4.352,3.911c-0.921,1.407-1.513,3.005-1.828,4.652
	c-0.136,0.71-0.378,1.637-0.118,2.338L805.167,382.987z"/>
<path style="fill:#FFFFFF;" d="M805.167,457.754l0.441-0.08c0.802-0.303,1.37-1.047,1.793-1.758c0.417-0.702,0.756-1.456,1.271-2.09
	c0.823-1.012,2.033-1.634,3.263-2.069c0.794-0.28,1.615-0.496,2.366-0.878c0.75-0.382,1.441-0.96,1.748-1.745
	c0.322-0.823,0.157-1.814-0.405-2.496c-0.576-0.697-1.505-1.041-2.41-1.05c-0.904-0.008-1.788,0.286-2.599,0.685
	c-1.772,0.871-3.276,2.257-4.352,3.911c-0.921,1.407-1.513,3.005-1.828,4.653c-0.136,0.71-0.378,1.637-0.118,2.338L805.167,457.754z
	"/>
<path style="fill:#FFFFFF;" d="M1008.497,1924.274c9.008,0,16.378-7.37,16.378-16.378s-7.37-16.378-16.378-16.378h-28.484V308.2
	c0-1.542-1.247-2.789-2.789-2.789c-1.541,0-2.789,1.247-2.789,2.789v1583.318h-8.187V308.2c0-1.542-1.248-2.789-2.789-2.789
	c-1.542,0-2.789,1.247-2.789,2.789v1583.318h-8.664V308.2c0-1.542-1.247-2.789-2.789-2.789c-1.541,0-2.789,1.247-2.789,2.789
	v1583.318h-9.02V308.2c0-1.542-1.248-2.789-2.789-2.789c-1.542,0-2.789,1.247-2.789,2.789v1583.318h-8.901V308.2
	c0-1.542-1.248-2.789-2.789-2.789c-1.542,0-2.789,1.247-2.789,2.789v1583.318h-28.483c-9.008,0-16.378,7.37-16.378,16.378
	s7.37,16.378,16.378,16.378H1008.497z"/>
</svg>
