<?xml version="1.0" encoding="utf-8"?>
<!-- Generator: Adobe Illustrator 24.1.0, SVG Export Plug-In . SVG Version: 6.00 Build 0)  -->
<svg version="1.1" id="Layer_1" xmlns="http://www.w3.org/2000/svg" xmlns:xlink="http://www.w3.org/1999/xlink" x="0px" y="0px"
	 viewBox="0 0 98.6 98.6" style="enable-background:new 0 0 98.6 98.6;" xml:space="preserve">
<g>
	<path d="M0.1,81.7c0.2,0.8,1,1.4,1.8,1.4c0,0,0.1,0,0.1,0c0.4,1.1,0.8,2.1,1.4,3.1c0,0,0,0-0.1,0L2,87.5c-0.1,0.1-0.1,0.2-0.1,0.4
		s0.1,0.3,0.1,0.4l8.4,8.4c0.1,0.1,0.2,0.1,0.4,0.1s0.3-0.1,0.4-0.1l1.3-1.3c0,0,0,0,0,0c1,0.5,2,1,3.1,1.4c0,0.9,0.5,1.7,1.4,1.9
		c0.2,0,0.3,0.1,0.5,0.1c0.7,0,1.3-0.4,1.6-1c1.3,0.2,2.7,0.4,4,0.4c1.4,0,2.7-0.1,4-0.4c0.3,0.6,0.9,1,1.6,1c0.2,0,0.3,0,0.5-0.1
		c0.9-0.2,1.4-1,1.4-1.9c2.5-0.9,4.9-2.2,6.9-4c0.3,0.2,0.6,0.3,1,0.3c0.5,0,1-0.2,1.3-0.6c0.6-0.6,0.7-1.6,0.3-2.3
		c1.8-2.1,3.1-4.4,4-6.9c0,0,0.1,0,0.1,0c0.9,0,1.6-0.6,1.8-1.4c0.1-0.5,0.1-1-0.2-1.4c-0.2-0.3-0.4-0.6-0.8-0.7
		c0.2-1.3,0.4-2.6,0.4-4s-0.1-2.7-0.4-4c0.3-0.2,0.6-0.4,0.8-0.7c0.3-0.4,0.3-0.9,0.2-1.4c-0.2-0.8-1-1.4-1.9-1.4
		c-0.5-1.3-1-2.6-1.8-3.8l38-39.3l0,0c0.1-0.1,1.5-1.7,3.2-1.2l0,0.1l0.2,0c0.3,0,0.3,0,1.6-1.2l0.7,0.7c-0.5,0.8-0.5,1.8,0.1,2.4
		c0.3,0.3,0.8,0.5,1.2,0.5l0,0c0.6,0,1.1-0.2,1.6-0.7c0.4-0.4,0.6-0.9,0.7-1.4c0.1-0.5-0.1-1.1-0.5-1.4c-0.6-0.6-1.6-0.6-2.4-0.1
		L86.1,22c0,0,0,0,0,0c1.6-1.4,3.7-3.4,5.3-4.6c0.5-0.4,1-0.7,1.5-1.1l0.5,0.5c-0.5,0.8-0.5,1.8,0.1,2.4c0.3,0.3,0.8,0.5,1.2,0.5
		c0.6,0,1.1-0.2,1.6-0.7c0.8-0.8,0.9-2.1,0.2-2.8c-0.6-0.6-1.6-0.6-2.4-0.1l-0.3-0.3c2.2-1.4,4.3-2.5,4.3-2.5l0.5-0.3l-0.3-0.5
		c0,0-1.6-2.5-1.1-5.9l0.1-0.4l-0.4-0.1c0,0-1.2-0.3-2.6-1.8s-1.8-2.6-1.8-2.6l-0.1-0.4l-0.4,0.1C88.5,1.9,86,0.3,86,0.3L85.5,0
		l-0.3,0.5c0,0-1.1,2.1-2.5,4.3l-0.3-0.3C83,3.7,83,2.7,82.3,2.1c-0.7-0.7-2-0.6-2.8,0.2c-0.8,0.8-0.9,2.1-0.2,2.8
		c0.3,0.3,0.8,0.5,1.2,0.5c0.4,0,0.8-0.1,1.2-0.4l0.5,0.5c-0.3,0.5-0.7,1-1.1,1.5c-1.2,1.6-3.2,3.7-4.6,5.3c0,0,0,0,0,0l-0.7-0.7
		c0.2-0.3,0.3-0.7,0.4-1c0-0.6-0.1-1.1-0.5-1.4c-0.7-0.7-2-0.6-2.8,0.2c-0.8,0.8-0.9,2.1-0.2,2.8c0.3,0.3,0.8,0.5,1.2,0.5
		c0.4,0,0.8-0.1,1.2-0.4l0.7,0.7c-1.2,1.3-1.2,1.4-1.2,1.6l0,0.2l0.1,0.1c0.6,1.7-1.1,3.1-1.2,3.2l0,0l-39.3,38
		c-1.2-0.7-2.4-1.3-3.8-1.8c0-0.9-0.5-1.7-1.4-1.9c-0.8-0.2-1.7,0.2-2.2,0.9c-1.3-0.2-2.6-0.4-4-0.4s-2.7,0.1-4,0.4
		c-0.4-0.7-1.3-1.2-2.2-0.9c-0.9,0.2-1.4,1-1.4,1.9c-2.5,0.9-4.9,2.2-6.9,4c-0.7-0.4-1.7-0.4-2.3,0.3c-0.4,0.4-0.6,0.8-0.6,1.3
		c0,0.4,0.1,0.7,0.3,1c-1.8,2.1-3.1,4.4-4,6.9c-0.9,0-1.7,0.5-1.9,1.4c-0.2,0.9,0.2,1.8,1,2.2c-0.5,2.6-0.5,5.4,0,8
		C0.3,80-0.2,80.8,0.1,81.7z M1.7,80.4c0.1,0,0.2,0,0.2,0c0.4,0,0.8,0.3,0.9,0.7c0.1,0.5-0.2,1-0.6,1.1c-0.5,0.1-1-0.2-1.1-0.6
		C0.9,81,1.2,80.5,1.7,80.4z M10.8,95.5L9,93.7l1.9-1.7c0.7,1.3,0.7,2.3,0.7,2.7L10.8,95.5z M16.6,97.2c-0.1-0.2-0.1-0.4-0.1-0.7
		c0.1-0.4,0.5-0.7,0.9-0.7c0.1,0,0.2,0,0.2,0c0.5,0.1,0.8,0.6,0.6,1.1c-0.1,0.5-0.6,0.8-1.1,0.6C16.9,97.5,16.7,97.4,16.6,97.2z
		 M27.9,96.9c-0.1-0.5,0.2-1,0.6-1.1c0.1,0,0.2,0,0.2,0c0.4,0,0.8,0.3,0.9,0.7c0.1,0.2,0,0.5-0.1,0.7c-0.1,0.2-0.3,0.4-0.5,0.4
		C28.5,97.7,28,97.4,27.9,96.9z M37.9,91.7c-0.2-0.2-0.3-0.4-0.3-0.6s0.1-0.5,0.3-0.6c0.2-0.2,0.4-0.3,0.6-0.3s0.5,0.1,0.6,0.3
		c0.3,0.3,0.3,0.9,0,1.3C38.8,92,38.2,92,37.9,91.7z M44,82.1c-0.2-0.1-0.4-0.2-0.5-0.4s-0.1-0.4-0.1-0.7c0.1-0.4,0.5-0.7,0.9-0.7
		c0.1,0,0.2,0,0.2,0c0.2,0.1,0.4,0.2,0.5,0.4s0.1,0.4,0.1,0.7C44.9,81.9,44.4,82.2,44,82.1z M44.4,70.8c-0.5,0.1-1-0.2-1.1-0.6
		c-0.1-0.2,0-0.5,0.1-0.7s0.3-0.4,0.5-0.4c0.1,0,0.2,0,0.2,0c0.4,0,0.8,0.3,0.9,0.7c0.1,0.2,0,0.5-0.1,0.7
		C44.8,70.5,44.6,70.7,44.4,70.8z M23,97c-1.3,0-2.6-0.1-3.8-0.3c0-0.8-0.6-1.5-1.4-1.7c-0.8-0.2-1.6,0.1-2.1,0.8
		c-1.1-0.4-2.2-0.9-3.3-1.5c-0.1-0.7-0.3-1.7-0.9-2.8l7.9-7l3.6,3.6l0.7-0.7l-3.6-3.6l20.2-20.6c1.2,1.6,2.1,3.4,2.8,5.3
		c-0.7,0.4-1,1.3-0.8,2.1c0.2,0.8,0.9,1.3,1.7,1.4c0.2,1.2,0.4,2.5,0.4,3.8c0,1.3-0.1,2.6-0.3,3.8c-0.8,0.1-1.5,0.6-1.7,1.4
		c-0.2,0.8,0.1,1.6,0.8,2.1c-0.9,2.4-2.1,4.6-3.8,6.6c-0.3-0.1-0.5-0.2-0.8-0.2c-0.5,0-1,0.2-1.3,0.6s-0.6,0.8-0.6,1.3
		c0,0.3,0.1,0.6,0.2,0.8c-2,1.7-4.2,2.9-6.6,3.8c-0.4-0.7-1.3-1-2.1-0.8c-0.8,0.2-1.3,0.9-1.4,1.7C25.6,96.8,24.3,97,23,97z
		 M79.9,23.9l-0.6-0.6l4.6-3.7c0,0,0,0,0,0c0.1,0.1,0.3,0.1,0.5,0.1c0.3,0,0.6-0.2,0.8-0.4c0.1-0.2,0.2-0.5,0.1-0.7
		c-0.1-0.2-0.2-0.4-0.4-0.6c-0.4-0.3-1-0.1-1.3,0.3c-0.1,0.2-0.2,0.5-0.1,0.7c0,0.1,0,0.1,0.1,0.2L79,23l-0.9-0.9l13-9.8
		c0,0,0,0,0.1,0c0.1,0.1,0.3,0.1,0.5,0.1c0.3,0,0.6-0.2,0.8-0.4c0.1-0.2,0.2-0.4,0.1-0.7c-0.1-0.2-0.2-0.4-0.4-0.6
		c-0.4-0.3-1-0.1-1.3,0.3c-0.2,0.3-0.2,0.6-0.1,0.8l-13.1,9.8l-1-1l9.8-13c0.1,0,0.2,0.1,0.3,0.1c0.3,0,0.6-0.2,0.8-0.4
		c0.3-0.4,0.1-1-0.3-1.3c-0.4-0.3-1-0.1-1.3,0.3C86,6.6,86,6.9,86,7.1c0,0.1,0.1,0.2,0.2,0.4l-9.8,13l-0.9-0.9l3.8-4.7
		c0.1,0,0.2,0.1,0.4,0.1c0.3,0,0.6-0.2,0.8-0.4c0.1-0.2,0.2-0.4,0.1-0.7c-0.1-0.2-0.2-0.4-0.4-0.6c-0.4-0.3-1-0.1-1.3,0.3
		c-0.1,0.2-0.2,0.4-0.1,0.7c0,0.1,0.1,0.2,0.1,0.3l-3.7,4.6l-0.6-0.6c0.6-0.7,1.6-2.1,1.1-3.8c0.3-0.3,0.9-1,1.5-1.7
		c1.5-1.6,3.5-3.8,4.7-5.4c0.3-0.4,0.7-0.9,1-1.4l0,0l0.7-0.7l-0.2-0.2c1.1-1.7,2-3.3,2.4-4.1c0.9,0.5,3,1.3,5.7,1.1
		C91.9,3,92.4,4,93.5,5.1c1.1,1.1,2.1,1.6,2.6,1.9c-0.3,2.7,0.6,4.8,1.1,5.7c-0.8,0.4-2.4,1.3-4.1,2.4l-0.2-0.2l-0.7,0.7l0,0
		c-0.5,0.3-1,0.7-1.4,1c-1.6,1.2-3.8,3.2-5.4,4.7c-0.7,0.6-1.4,1.3-1.7,1.5C82,22.3,80.6,23.3,79.9,23.9z M29.5,54
		c0.1,0.2,0.1,0.4,0.1,0.7c-0.1,0.5-0.6,0.8-1.1,0.6c-0.2-0.1-0.4-0.2-0.5-0.4c-0.1-0.2-0.1-0.4-0.1-0.7c0.1-0.4,0.5-0.7,0.9-0.7
		c0.1,0,0.2,0,0.2,0C29.2,53.6,29.4,53.8,29.5,54z M30.3,55.4c1.9,0.7,3.6,1.6,5.3,2.8L14.9,78.4l-3.6-3.6l-0.7,0.7l3.6,3.6l-7,7.9
		c-1.2-0.6-2.2-0.9-2.8-0.9c-0.6-1.1-1.1-2.2-1.5-3.3c0.7-0.4,1-1.2,0.8-2.1C3.5,80,2.8,79.4,2,79.4c-0.4-2.5-0.4-5.1,0-7.6
		c0.8,0,1.5-0.6,1.7-1.4c0.2-0.8-0.1-1.6-0.8-2.1C3.8,66,5,63.7,6.7,61.8C7,61.9,7.3,62,7.6,62c0.5,0,1-0.2,1.3-0.6s0.6-0.8,0.6-1.3
		c0-0.3-0.1-0.6-0.2-0.8c2-1.7,4.2-2.9,6.6-3.8c0.3,0.5,0.9,0.9,1.6,0.9c0.2,0,0.3,0,0.5-0.1c0.8-0.2,1.3-0.9,1.4-1.7
		c1.2-0.2,2.5-0.3,3.8-0.3c1.3,0,2.6,0.1,3.8,0.3c0,0.8,0.6,1.5,1.4,1.7c0.2,0,0.3,0.1,0.5,0.1C29.4,56.3,29.9,56,30.3,55.4z
		 M18.2,54.2c0.1,0.2,0,0.5-0.1,0.7c-0.1,0.2-0.3,0.4-0.5,0.4c-0.5,0.1-1-0.2-1.1-0.6c-0.1-0.2,0-0.5,0.1-0.7
		c0.1-0.2,0.3-0.4,0.5-0.4c0.1,0,0.2,0,0.2,0C17.8,53.5,18.1,53.8,18.2,54.2z M7.6,59.2c0.2,0,0.5,0.1,0.6,0.3
		c0.2,0.2,0.3,0.4,0.3,0.6s-0.1,0.5-0.3,0.6c-0.3,0.3-0.9,0.3-1.3,0c-0.2-0.2-0.3-0.4-0.3-0.6s0.1-0.5,0.3-0.6S7.3,59.2,7.6,59.2z
		 M1.9,69C2,69,2,69,2.1,69c0.5,0.1,0.8,0.6,0.6,1.1c-0.1,0.5-0.6,0.8-1.1,0.6c-0.5-0.1-0.8-0.6-0.6-1.1C1.1,69.3,1.5,69,1.9,69z
		 M6.5,91.2l2-2.1c0.2,0.1,0.3,0.3,0.5,0.5c0.2,0.2,0.3,0.3,0.5,0.5l-2.1,2L6.5,91.2z M7.7,92.5l2.1-2c0.3,0.4,0.6,0.8,0.8,1.1
		l-2,1.8L7.7,92.5z M77,22.4L39.4,60.3c-0.2-0.2-0.3-0.4-0.5-0.6s-0.4-0.4-0.6-0.5l37.9-37.6L77,22.4z M38.7,61L18.2,81.7l-1.3-1.3
		l20.7-20.5c0.2,0.2,0.4,0.3,0.6,0.5C38.4,60.6,38.5,60.8,38.7,61z M17.5,82.4l-7.3,7c-0.2-0.2-0.3-0.3-0.5-0.5
		c-0.2-0.2-0.3-0.3-0.5-0.5l7-7.3L17.5,82.4z M8.8,88.1c-0.4-0.3-0.8-0.6-1.1-0.8l6.9-7.8l1.3,1.3L8.8,88.1z M15.3,78.8L36,58.5
		c0.4,0.3,0.8,0.7,1.2,1L16.6,80.1L15.3,78.8z M36.7,57.8l38.3-37.5l0.9,0.9L37.9,58.8C37.5,58.5,37.1,58.1,36.7,57.8z M78.2,23.7
		L40.8,61.9c-0.3-0.4-0.7-0.8-1-1.2l37.6-37.9L78.2,23.7z M40.1,62.6L19.8,83.3L18.5,82L39,61.4C39.4,61.8,39.7,62.2,40.1,62.6z
		 M19.1,84l-7.8,6.9c-0.2-0.4-0.5-0.7-0.8-1.1l7.3-7L19.1,84z M6.1,90.9L5.3,90L7,88c0.4,0.2,0.7,0.5,1.1,0.8L6.1,90.9z M35.2,56.8
		L74,19.4l0.6,0.6L36.3,57.5C35.9,57.3,35.6,57,35.2,56.8z M79.2,24.6L41.8,63.4c-0.2-0.4-0.5-0.7-0.7-1L78.6,24L79.2,24.6z
		 M3.1,87.8l0.8-0.8c0.4,0,1.4,0.1,2.7,0.7l-1.7,1.9L3.1,87.8z M75.2,10.7c0,0.3-0.2,0.6-0.4,0.8c-0.2,0.3-0.6,0.4-0.9,0.4
		c-0.1,0-0.4,0-0.5-0.2c-0.3-0.3-0.2-1,0.2-1.4c0.2-0.3,0.6-0.4,0.9-0.4c0.1,0,0.4,0,0.5,0.2C75.1,10.2,75.2,10.5,75.2,10.7z
		 M75.2,11.8L75.2,11.8L75.2,11.8z M81.5,4.2c-0.2,0.3-0.6,0.4-0.9,0.4c-0.1,0-0.4,0-0.5-0.2c-0.3-0.3-0.2-1,0.2-1.4
		c0.2-0.3,0.6-0.4,0.9-0.4c0.1,0,0.4,0,0.5,0.2C82,3.1,81.9,3.7,81.5,4.2z M81.8,4.5L81.8,4.5L81.8,4.5z M94.4,17.1
		c0.2-0.2,0.6-0.4,0.9-0.4c0.2,0,0.4,0,0.5,0.2c0.3,0.3,0.2,1-0.2,1.4c-0.2,0.2-0.6,0.4-0.9,0.4c-0.2,0-0.4,0-0.5-0.2
		C93.9,18.2,94,17.6,94.4,17.1z M94.1,16.8L94.1,16.8L94.1,16.8z M87.1,23.8c0.2-0.2,0.6-0.4,0.9-0.4c0.2,0,0.4,0,0.5,0.2
		c0.1,0.1,0.2,0.4,0.2,0.6c0,0.3-0.2,0.6-0.4,0.8c-0.2,0.2-0.6,0.4-0.9,0.4c-0.2,0-0.4,0-0.5-0.2C86.6,24.9,86.7,24.2,87.1,23.8z
		 M86.8,23.4L86.8,23.4L86.8,23.4z"/>
</g>
</svg>
