<?xml version="1.0" encoding="utf-8"?>
<!-- Generator: Adobe Illustrator 24.1.0, SVG Export Plug-In . SVG Version: 6.00 Build 0)  -->
<svg version="1.1" id="Layer_1" xmlns="http://www.w3.org/2000/svg" xmlns:xlink="http://www.w3.org/1999/xlink" x="0px" y="0px"
	 viewBox="0 0 97.5 98.6" style="enable-background:new 0 0 97.5 98.6;" xml:space="preserve">
<g>
	<g>
		<path d="M97.2,70.4c-1.2-6.6-5.9-10.6-8.8-11.8c-1.8-0.7-6.4-2.5-7.1-4.8c-0.1-0.3-0.4-0.6-0.7-0.7c-0.1,0-0.2,0-0.2,0
			c-0.3,0-0.5,0.1-0.7,0.3c-1.6,1.6-3.1,2.4-4.6,2.4c-1.6,0-3.4-0.8-6.1-2.8c-2.7-2-3.6-4.2-3.5-5.6c0.1-0.9,0.5-1.6,1.3-2.1
			c0.4-0.2,0.6-0.6,0.5-1s-0.3-0.7-0.7-0.9c-2.1-0.6-2.6-1.9-3.5-3.8C62.4,38,61.5,36,59.5,34c-0.9-0.9-4.3-3.9-9.6-3.9
			c-3.7,0-7.4,1.5-11,4.3L19.2,15.6c-0.2-0.2-0.4-0.3-0.7-0.3c0,0,0,0,0,0l-3-3l1.6-1.6c0.6,0.5,1.1,0.7,1.7,0.7
			c0.5,0,1-0.2,1.5-0.7c0.5-0.5,0.8-1.2,0.8-2s-0.3-1.4-0.8-2c-1.1-1.1-2.9-1.1-3.9,0c-0.5,0.5-0.8,1.2-0.6,1.9
			c0.1,0.4,0.3,0.9,0.7,1.3l-1.5,1.5l-4.3-4.3l1-1l0,0h0L12,5.8c0.6,0.5,1.1,0.7,1.7,0.7c0.5,0,1-0.2,1.5-0.7c0.5-0.5,0.8-1.2,0.8-2
			s-0.3-1.4-0.8-2c-1.1-1.1-2.9-1.1-3.9,0c-0.9,0.9-0.9,2.1,0,3.2l-1.2,1.2H9.5L8.8,4.6L8.3,4.3l0.5-0.5L7.3,1.4L5.9,2.9L4.8,2.2
			L3.9,3C3.5,2.6,3,2.2,2.6,1.8L2.3,1.5L0,3.7L0.4,4c0.4,0.4,0.8,0.8,1.2,1.3L0.8,6.2l0.6,1.1L0,8.7l2.3,1.5l0.5-0.5l0.3,0.6
			l1.7,0.4l0,2.5l0.7-1.9l1.8,1.8l-1.7,1.7c-1.1-0.9-2.3-0.9-3.2,0c-1.1,1.1-1.1,2.9,0,3.9c0.5,0.5,1.2,0.8,2,0.8s1.4-0.3,2-0.8
			c0.9-0.9,0.9-2.1,0-3.2l1.7-1.7l4.3,4.3l-1.7,1.7c-1.1-0.9-2.3-0.9-3.2,0c-0.5,0.5-0.8,1.2-0.8,2s0.3,1.4,0.8,2
			c0.5,0.5,1.2,0.8,2,0.8s1.4-0.3,2-0.8c0.9-0.9,0.9-2.1,0-3.2l1.7-1.7l0.9,0.9c-0.1,0.3,0,0.7,0.2,1l18.7,19.7
			c-2.9,3.8-4.2,7.7-4,11.6c0.3,4.8,3.1,7.9,3.9,8.7c2,2,4.1,2.9,5.7,3.6c2,0.9,3.3,1.4,3.8,3.5c0.1,0.4,0.4,0.7,0.9,0.7
			c0,0,0.1,0,0.1,0c0.4,0,0.7-0.2,0.9-0.5c0.6-1.1,1.6-1.3,2.3-1.3c1.8,0,3.8,1.3,5.4,3.5c3.2,4.4,4,7,0.4,10.6
			c-0.2,0.2-0.3,0.6-0.3,0.9c0.1,0.3,0.3,0.6,0.7,0.7c2.3,0.7,4.1,5.4,4.8,7.1c1.1,2.9,5.2,7.7,11.8,8.8c0.8,0.1,1.7,0.2,2.5,0.2
			c4.9,0,9.6-2.7,16.3-9.4C94.6,82.6,98.4,77.2,97.2,70.4z M52.7,69.5c-1.9-2.7-4.3-3.9-6.2-3.9c-1.4,0-2.5,0.6-3.2,1.9
			c-1.2-4.5-5.5-3.3-9.8-7.5c-2.4-2.4-6.8-9.6,0.1-18.9l0.6,0.6c-2.5,3.4-3.6,6.8-3.4,10.1c0.3,4.3,2.7,7,3.5,7.8
			c1.9,1.9,3.7,2.6,5.2,3.3c1.9,0.8,3.2,1.3,3.9,3.6c0,0.1,0.1,0.2,0.2,0.2c0.1,0,0.2,0,0.2-0.1c0.4-0.9,1.2-1.4,2.3-1.5
			c2.1-0.2,4.8,1.4,6.7,4c2.9,4,5.4,8.2,1.5,12.1c-0.1,0.1-0.1,0.2-0.1,0.2c0,0.1,0.1,0.2,0.2,0.2c2,0.6,2.8,2.8,3.7,5.2
			c0.2,0.4,0.3,0.8,0.5,1.2c0.9,2.2,3.8,6.1,8.3,8c0,0.3-0.1,0.6-0.1,0.8c-4.4-1.6-7.4-5-8.4-7.5c-1.1-2.9-2.9-6.9-5.4-7.7
			C57.2,77.3,56,74,52.7,69.5z M1.6,8.5L2,8.2l0.4,0.6L2.2,8.9L1.6,8.5z M2.1,6.3l0.2-0.2c1.1,1.3,2.1,2.6,2.5,3.5L3.8,9.4L2.1,6.3z
			 M7.4,3.7L6.7,3.4L7.1,3l0.4,0.6L7.4,3.7z M8,5.3l0.4,0.9C7.5,5.9,6,4.8,4.7,3.7l0.2-0.2L8,5.3z M68.4,53.8c2.5,1.8,4.6,3,6.7,3
			c1.7,0,3.4-0.8,5.3-2.7c0.8,2.5,4.8,4.3,7.7,5.4c2.9,1.1,7.2,5.2,8.2,11c1,5.4-1.4,10.1-7.3,16.3l0.1-0.2c0,0-0.2-0.1-0.6-0.4
			c5.9-6.2,7.9-10.8,6.9-15.8c-1.1-5.8-5.9-9.7-8.7-10.9c-0.6-0.2-1.1-0.4-1.7-0.6c-2.2-0.8-4.1-1.5-4.7-3.3c0-0.1-0.1-0.1-0.2-0.2
			c-0.1,0-0.2,0-0.2,0.1c-3.8,3.8-7.7,1.4-12-1.8c-2.6-1.9-4.2-4.5-4-6.7c0.1-1.1,0.6-1.9,1.5-2.3c0.1,0,0.1-0.1,0.1-0.2
			s-0.1-0.2-0.2-0.2c-2.3-0.7-2.8-2-3.6-3.9c-0.6-1.5-1.4-3.3-3.3-5.2c-0.9-0.9-8.1-7.5-18.3,0.2L39.6,35c3.8-2.9,7.3-4,10.3-4
			c4.3,0,7.5,2.2,8.9,3.6c4.3,4.3,3,8.6,7.5,9.8C63.4,46,63.8,50.5,68.4,53.8z M15.9,19l-0.2,0.2l0.5-0.5L56.6,60l-1.2,1.2L15.9,19z
			 M17.2,16.3L8.7,7.7l0.2-0.2L9,7.3h0l8.6,8.6L17.2,16.3z M74.9,70.4c0,0-0.1,0.3-0.4,0.8l-5.1-6c0.5-0.8,0.7-1.2,0.7-1.3l-0.9-0.3
			c0,0-0.1,0.3-0.5,0.9l-7.9-7.4l0.3-0.3c0.2-0.2,0.3-0.5,0.3-0.7c0-0.3-0.1-0.5-0.3-0.7L40.6,35.9c9.8-7.4,16.7-1,17.5-0.2
			c1.8,1.8,2.5,3.5,3.1,5c0.7,1.8,1.3,3.2,3.4,4c-0.7,0.6-1.2,1.4-1.3,2.4c-0.2,2.3,1.5,5.1,4.2,7.1c4.4,3.2,8.4,5.6,12.4,2
			c0.8,1.8,2.8,2.5,4.9,3.3c0.6,0.2,1.1,0.4,1.7,0.6c2.7,1.1,7.3,4.9,8.4,10.5c0.9,4.8-1.1,9.2-6.8,15.4c-2-1.4-6.7-4.9-8.2-8.5
			c-2-4.8-4-7.1-4.1-7.2c-0.1-0.1-0.3-0.2-0.5-0.2C75.1,70.2,75,70.3,74.9,70.4z M68.9,77.2c0.1,0.1,2.4,2,7.2,4.1
			c1.6,0.7,3.2,2,4.5,3.4c-0.8-0.2-1.7-0.3-2.6-0.2c-2.8,0.2-5.6,1.6-7.6,4c-2.2,2.6-3.1,5.2-3.4,6.9c-4.3-1.8-7.1-5.5-7.9-7.6
			c-0.2-0.4-0.3-0.8-0.5-1.2c-0.9-2.3-1.7-4.5-3.7-5.3c3.8-4.1,1.2-8.4-1.7-12.5c-2-2.7-4.8-4.4-7.1-4.2c-1,0.1-1.9,0.5-2.4,1.3
			c-0.8-2.1-2.2-2.7-4-3.4c-1.5-0.6-3.2-1.3-5-3.1c-0.7-0.7-3.1-3.4-3.3-7.5c-0.2-3.2,0.9-6.4,3.2-9.7l19.5,20.5
			c0.2,0.2,0.4,0.3,0.7,0.3c0,0,0,0,0,0c0.3,0,0.5-0.1,0.7-0.3l0.3-0.3l7.3,7.8c-0.3,0.2-0.5,0.3-0.5,0.3l0.3,0.9
			c0,0,0.4-0.2,0.9-0.5l6,5.1c-0.5,0.3-0.8,0.4-0.8,0.4c-0.2,0.1-0.3,0.2-0.3,0.4C68.7,76.9,68.8,77.1,68.9,77.2z M65.5,68.3l-7.8-8
			l1.2-1.2l8,7.8c-0.2,0.2-0.4,0.4-0.6,0.6C66,67.8,65.8,68.1,65.5,68.3z M67.2,66.6l-8-7.8l1.2-1.2l7.9,7.5
			C68.2,65.4,67.8,65.9,67.2,66.6z M57,59.6L16.6,18.3l-0.2,0.2l0.7-0.7L16.9,18l41.3,40.4L57,59.6z M65.1,68.6
			c-0.6,0.5-1.2,0.9-1.6,1.2l-7.4-7.9l1.2-1.2L65.1,68.6z M64.3,70.5c0.4-0.3,1-0.7,1.6-1.2l5.7,5.4c-0.5,0.4-0.9,0.7-1.2,0.9
			L64.3,70.5z M66.2,69c0.3-0.2,0.5-0.5,0.8-0.8c0.2-0.2,0.4-0.4,0.5-0.6l5.4,5.7c-0.2,0.2-0.3,0.4-0.5,0.5
			c-0.2,0.2-0.4,0.4-0.5,0.5L66.2,69z M67.9,67.3c0.5-0.6,0.9-1.1,1.2-1.5l5.1,6c-0.2,0.4-0.5,0.8-0.9,1.2L67.9,67.3z M58.6,58.1
			L17.3,17.6l0.5-0.5l-0.2,0.2l42.2,39.5L58.6,58.1z M15.7,17.8L7.1,9.2l0.8-0.8l8.6,8.6L15.7,17.8z M6.8,8.2C6.4,8.5,6.2,8.8,5.9,9
			l0-1.6l1.6,0C7.3,7.6,7.1,7.8,6.8,8.2z M6.4,9.9l8.6,8.6l-0.4,0.4l-8.6-8.6L6.4,9.9z M72.9,78.6c-1.2-0.7-2.2-1.3-2.7-1.7
			c0.2-0.1,0.3-0.2,0.5-0.3L72.9,78.6C72.9,78.5,72.9,78.5,72.9,78.6z M77.1,74.3l-1.9-2.2c0.1-0.2,0.2-0.4,0.3-0.5
			C75.9,72.1,76.5,73,77.1,74.3C77.1,74.3,77.1,74.3,77.1,74.3z M60.4,56.2l-0.3,0.3L17.9,16.9l0.6-0.6L60.4,56.2z M7.4,6.8L6,7.4v0
			L5.9,7.4l0.1,0L5.4,8.8c-0.9-1.8-3-4.1-4-5.1l0.8-0.8C3.3,3.8,5.6,5.9,7.4,6.8z M14.9,19.9l0.6-0.6l39.5,42.2l-0.3,0.3L14.9,19.9z
			 M71.1,89c1.8-2.1,4.4-3.4,6.9-3.6c1.7-0.1,3.3,0.3,4.3,1.2c1.7,2,2.8,3.8,2.9,3.9l0.2-0.1c-5.2,4.8-9.3,7.2-13.6,7.2
			c-0.8,0-1.5-0.1-2.3-0.2c-0.6-0.1-1.1-0.2-1.6-0.4l0,0C67.9,95.9,68.2,92.4,71.1,89z M85.7,90.2L85.7,90.2L85.7,90.2L85.7,90.2z
			 M86.1,89.8c-0.6-0.9-4.9-7.5-9.6-9.5c-1-0.4-1.9-0.8-2.7-1.3c0,0,0,0,0.1,0c0.2-0.2,0.2-0.6,0-0.8c-0.2-0.2-0.4-0.2-0.7-0.1
			l-2.1-1.8c0.4-0.2,0.8-0.5,1.2-0.9l1.8,1.7c-0.1,0.2,0,0.4,0.1,0.6c0.1,0.1,0.3,0.2,0.4,0.2s0.3-0.1,0.4-0.2
			c0.2-0.2,0.2-0.6,0-0.8c-0.2-0.2-0.4-0.2-0.6-0.1l-1.8-1.7c0.2-0.2,0.4-0.3,0.5-0.5s0.3-0.4,0.5-0.5l1.7,1.8
			c-0.1,0.2-0.1,0.5,0.1,0.6c0.1,0.1,0.3,0.2,0.4,0.2s0.3-0.1,0.4-0.2c0.2-0.2,0.2-0.6,0-0.8c-0.1-0.1-0.4-0.2-0.6-0.1L74,73.7
			c0.4-0.4,0.6-0.8,0.9-1.2l1.8,2.1c-0.1,0.2-0.1,0.5,0.1,0.7c0.1,0.1,0.3,0.2,0.4,0.2s0.3-0.1,0.4-0.2c0,0,0-0.1,0.1-0.1
			c0.4,0.8,0.8,1.7,1.3,2.7c2,4.7,8.6,9,9.5,9.6L86.1,89.8z M18.2,7.1c0.5,0,0.9,0.2,1.3,0.5S20,8.4,20,8.8s-0.2,0.9-0.5,1.3
			c-0.6,0.6-1.3,0.4-2.2-0.4c-0.4-0.4-0.7-0.8-0.7-1.2c-0.1-0.4,0-0.7,0.3-1C17.3,7.2,17.8,7.1,18.2,7.1z M13.3,2.1
			c0.5,0,0.9,0.2,1.3,0.5S15,3.4,15,3.9s-0.2,0.9-0.5,1.3c-0.6,0.6-1.3,0.4-2.2-0.4c-0.8-0.8-1-1.6-0.4-2.2
			C12.3,2.3,12.8,2.1,13.3,2.1z M3.2,18c-0.7-0.7-0.7-1.8,0-2.5c0.2-0.2,0.5-0.4,0.8-0.4c0.4,0,0.9,0.3,1.4,0.7
			c0.8,0.8,1,1.6,0.4,2.2C5.1,18.6,3.9,18.6,3.2,18z M5.7,15.5L5.7,15.5L5.7,15.5z M8.2,22.9c-0.3-0.3-0.5-0.8-0.5-1.3
			c0-0.5,0.2-0.9,0.5-1.3C8.4,20.2,8.7,20,9,20c0.4,0,0.9,0.3,1.4,0.7c0.8,0.8,1,1.6,0.4,2.2C10,23.6,8.9,23.6,8.2,22.9z M10.7,20.4
			L10.7,20.4L10.7,20.4z"/>
	</g>
	<g>
		<path d="M55.4,66.7c0-0.3,0.1-0.4,0.2-0.6c0.2-0.2,0.4-0.2,0.6-0.2c0.5,0.1,1,0.6,1.2,0.8l0.8-0.6c-0.1-0.1-0.8-1.1-1.9-1.2
			c-0.5-0.1-1,0.1-1.4,0.4c-0.4,0.3-0.6,0.7-0.6,1.3c-0.1,1.8,1.9,4.5,3.7,6.3c2.1,2.1,3.5,4.3,3.4,5.6c0,0.3-0.1,0.4-0.2,0.6
			c-0.2,0.2-0.4,0.2-0.6,0.2c-0.5-0.1-1-0.6-1.2-0.8L58.6,79c0.1,0.1,0.8,1.1,1.9,1.2c0.1,0,0.1,0,0.2,0c0.4,0,0.8-0.2,1.2-0.4
			c0.4-0.3,0.6-0.7,0.6-1.3c0.1-1.8-1.9-4.5-3.7-6.3C56.7,70.1,55.3,67.9,55.4,66.7z"/>
	</g>
	<g>
		<path d="M76.9,64.1c0.5,0,1-0.2,1.3-0.6c0.3-0.4,0.5-0.9,0.4-1.4c-0.1-1-1.1-1.8-1.2-1.9L76.9,61c0.2,0.2,0.7,0.7,0.8,1.2
			c0,0.2,0,0.4-0.2,0.6c-0.1,0.1-0.3,0.2-0.6,0.2c-1.2,0.1-3.4-1.3-5.6-3.4c-1.9-1.9-4.5-3.8-6.3-3.7c-0.5,0-1,0.2-1.3,0.6
			c-0.3,0.4-0.5,0.9-0.4,1.4c0.1,1,1.1,1.8,1.2,1.9l0.6-0.8c-0.2-0.2-0.7-0.7-0.8-1.2c0-0.2,0-0.4,0.2-0.6c0.1-0.1,0.3-0.2,0.6-0.2
			c1.2,0,3.4,1.3,5.6,3.4c1.8,1.8,4.4,3.7,6.2,3.7C76.9,64.1,76.9,64.1,76.9,64.1z"/>
	</g>
	<g>
		<path d="M39.8,1.9c0,0.1,0,0.1,0.1,0.2l0.4,0.6L41,3.7c0,0,0,0,0,0l0,0l45.2,48.6c0,0.2,0,0.3,0.1,0.5c0,0,0,0,0,0
			c0.1,0.1,3.9,3.9,3.9,3.9c0.1,0.1,0.2,0.1,0.4,0.1s0.3-0.1,0.4-0.1l1.3-1.3c1.6,1.6,2.5,2.6,2.5,2.6c0.1,0.1,0.2,0.2,0.4,0.2
			c0,0,0,0,0,0c0.1,0,0.3-0.1,0.4-0.1l0.5-0.5c0.1-0.1,0.1-0.2,0.1-0.4s-0.1-0.3-0.2-0.4c-0.1-0.1-9.4-9-17.9-17.4
			c-3.8-3.9-7.1-7.2-9.7-9.8c-9-9.5-23.5-26.3-23.7-26.4l-0.3-0.3c-1-1.1-1.7-2-2.6-2c0,0-0.1,0-0.1,0c-0.9,0.1-1.6,0.4-1.6,0.4
			c0,0,0,0-0.1,0l-0.8-1.2C39.2,0,39.1,0,38.9,0c-0.1,0.1-0.1,0.2-0.1,0.3L39.8,1.9z M88.5,51.8c0-0.1,0-0.2,0-0.2
			c1.1,1.2,2.2,2.2,3,3.1l-0.9,0.9c-0.6-0.6-2-2-2.8-2.8C88.1,52.6,88.4,52.2,88.5,51.8z M42.6,2.4l-1,0.4L41.1,2
			c0.2,0,0.5-0.1,0.7-0.1C42.1,1.9,42.3,2.1,42.6,2.4z M86.6,52L41.8,3.8l1-0.4c1.9,2.2,15.5,17.5,25,27h0c0,0,0,0,0,0h0
			c0,0,0,0,0,0c2.3,2.4,5.6,5.7,9.7,9.8c3.3,3.3,6.5,6.7,9.3,9.6c0,0-0.1,0-0.1,0.1c-0.2,0.2-0.2,0.5,0,0.7l0.9,0.9c0,0,0,0.1,0,0.2
			c-0.1,0.3-0.4,0.4-0.5,0.4c0,0,0,0,0,0C86.9,52,86.7,51.9,86.6,52z"/>
	</g>
</g>
</svg>
